<?xml version="1.0" encoding="UTF-8"?>
<svg width="24" height="24" viewBox="0 0 24 24" fill="none" xmlns="http://www.w3.org/2000/svg">
<path d="M6.96621 15.3217H8.55044V14.3035H6.97873C6.35255 14.3035 6.00815 13.9619 6.00815 13.3042V7.01754C6.00815 6.35979 6.35255 6.01826 6.97873 6.01826H13.2343C13.8542 6.01826 14.2049 6.35979 14.2049 7.01754V8.40263H15.213V6.96062C15.213 5.65776 14.5555 5 13.2531 5H6.96621C5.65123 5 5 5.65776 5 6.96062V13.3611C5 14.664 5.65123 15.3217 6.96621 15.3217ZM10.0032 18.25H16.29C17.5925 18.25 18.25 17.5923 18.25 16.2894V9.88891C18.25 8.58604 17.5925 7.92828 16.29 7.92828H10.0032C8.6882 7.92828 8.03698 8.57972 8.03698 9.88891V16.2894C8.03698 17.5923 8.6882 18.25 10.0032 18.25ZM10.0157 17.2318C9.39579 17.2318 9.04513 16.8902 9.04513 16.2324V9.94583C9.04513 9.28807 9.39579 8.94654 10.0157 8.94654H16.2713C16.8912 8.94654 17.2419 9.28807 17.2419 9.94583V16.2324C17.2419 16.8902 16.8912 17.2318 16.2713 17.2318H10.0157ZM10.2474 13.0891C10.2474 13.399 10.4666 13.6078 10.7859 13.6078H12.6269V15.4735C12.6269 15.7897 12.8335 16.0111 13.1404 16.0111C13.4534 16.0111 13.6726 15.796 13.6726 15.4735V13.6078H15.5198C15.8329 13.6078 16.0521 13.399 16.0521 13.0891C16.0521 12.7729 15.8329 12.5515 15.5198 12.5515H13.6726V10.6921C13.6726 10.3696 13.4534 10.1482 13.1404 10.1482C12.8335 10.1482 12.6269 10.3696 12.6269 10.6921V12.5515H10.7859C10.4603 12.5515 10.2474 12.7729 10.2474 13.0891Z" fill="white"/>
</svg>
