<?xml version="1.0" encoding="UTF-8"?>
<svg width="32px" height="32px" viewBox="0 0 32 32" version="1.1" xmlns="http://www.w3.org/2000/svg" xmlns:xlink="http://www.w3.org/1999/xlink">
    <title>icon-padding-text</title>
    <g id="icon-padding-text" stroke="none" stroke-width="1" fill="none" fill-rule="evenodd">
        <g id="Path" transform="translate(1.000000, 11.644531)" fill="#FFFFFF">
            <path d="M2.1813377,1.67676305 C2.34365654,1.67676305 2.47698988,1.72748769 2.5813377,1.82893697 C2.68568553,1.93038624 2.73785944,2.0622703 2.73785944,2.22458914 L2.73751162,3.70466202 L5.86829423,3.70466202 L6.08568553,3.70466202 C6.24800437,3.70466202 6.37988843,3.75683594 6.4813377,3.86118376 C6.58278698,3.96553159 6.63351162,4.09886492 6.63351162,4.26118376 C6.63351162,4.4177055 6.58278698,4.54814029 6.4813377,4.65248811 C6.40017828,4.73596637 6.2995406,4.78605333 6.17942466,4.80274898 L6.08568553,4.80900985 L5.85959857,4.80900985 L2.73751162,4.80900985 L2.73785944,6.28908274 C2.73785944,6.45140158 2.68568553,6.58328563 2.5813377,6.68473491 C2.47698988,6.78618418 2.34365654,6.83690882 2.1813377,6.83690882 C2.02481597,6.83690882 1.89438118,6.78618418 1.79003336,6.68473491 C1.7065551,6.60357549 1.65646814,6.50293781 1.63977249,6.38282187 L1.63351162,6.28908274 L1.63351162,2.22458914 C1.63351162,2.0622703 1.68568553,1.93038624 1.79003336,1.82893697 C1.89438118,1.72748769 2.02481597,1.67676305 2.1813377,1.67676305 Z"></path>
        </g>
        <g id="Group" transform="translate(19.386719, 11.743164)" fill="#FFFFFF">
            <g id="arrow-right" transform="translate(5.806641, 4.256836) scale(-1, 1) translate(-5.806641, -4.256836) ">
                <path d="M2.1813377,1.67676305 C2.34365654,1.67676305 2.47698988,1.72748769 2.5813377,1.82893697 C2.68568553,1.93038624 2.73785944,2.0622703 2.73785944,2.22458914 L2.73751162,3.70466202 L5.86829423,3.70466202 L6.08568553,3.70466202 C6.24800437,3.70466202 6.37988843,3.75683594 6.4813377,3.86118376 C6.58278698,3.96553159 6.63351162,4.09886492 6.63351162,4.26118376 C6.63351162,4.4177055 6.58278698,4.54814029 6.4813377,4.65248811 C6.40017828,4.73596637 6.2995406,4.78605333 6.17942466,4.80274898 L6.08568553,4.80900985 L5.85959857,4.80900985 L2.73751162,4.80900985 L2.73785944,6.28908274 C2.73785944,6.45140158 2.68568553,6.58328563 2.5813377,6.68473491 C2.47698988,6.78618418 2.34365654,6.83690882 2.1813377,6.83690882 C2.02481597,6.83690882 1.89438118,6.78618418 1.79003336,6.68473491 C1.7065551,6.60357549 1.65646814,6.50293781 1.63977249,6.38282187 L1.63351162,6.28908274 L1.63351162,2.22458914 C1.63351162,2.0622703 1.68568553,1.93038624 1.79003336,1.82893697 C1.89438118,1.72748769 2.02481597,1.67676305 2.1813377,1.67676305 Z" id="Path"></path>
            </g>
        </g>
        <g id="Group" transform="translate(10.242676, 2.500488)" fill="#FFFFFF">
            <g id="arrow-left" transform="translate(5.806641, 4.256836) rotate(90.000000) translate(-5.806641, -4.256836) ">
                <path d="M2.1813377,1.67676305 C2.34365654,1.67676305 2.47698988,1.72748769 2.5813377,1.82893697 C2.68568553,1.93038624 2.73785944,2.0622703 2.73785944,2.22458914 L2.73751162,3.70466202 L5.86829423,3.70466202 L6.08568553,3.70466202 C6.24800437,3.70466202 6.37988843,3.75683594 6.4813377,3.86118376 C6.58278698,3.96553159 6.63351162,4.09886492 6.63351162,4.26118376 C6.63351162,4.4177055 6.58278698,4.54814029 6.4813377,4.65248811 C6.40017828,4.73596637 6.2995406,4.78605333 6.17942466,4.80274898 L6.08568553,4.80900985 L5.85959857,4.80900985 L2.73751162,4.80900985 L2.73785944,6.28908274 C2.73785944,6.45140158 2.68568553,6.58328563 2.5813377,6.68473491 C2.47698988,6.78618418 2.34365654,6.83690882 2.1813377,6.83690882 C2.02481597,6.83690882 1.89438118,6.78618418 1.79003336,6.68473491 C1.7065551,6.60357549 1.65646814,6.50293781 1.63977249,6.38282187 L1.63351162,6.28908274 L1.63351162,2.22458914 C1.63351162,2.0622703 1.68568553,1.93038624 1.79003336,1.82893697 C1.89438118,1.72748769 2.02481597,1.67676305 2.1813377,1.67676305 Z" id="Path"></path>
            </g>
        </g>
        <g id="Group" transform="translate(10.193359, 20.887207)" fill="#FFFFFF">
            <g id="arrow-left" transform="translate(5.806641, 4.256836) scale(1, -1) rotate(90.000000) translate(-5.806641, -4.256836) ">
                <path d="M2.1813377,1.67676305 C2.34365654,1.67676305 2.47698988,1.72748769 2.5813377,1.82893697 C2.68568553,1.93038624 2.73785944,2.0622703 2.73785944,2.22458914 L2.73751162,3.70466202 L5.86829423,3.70466202 L6.08568553,3.70466202 C6.24800437,3.70466202 6.37988843,3.75683594 6.4813377,3.86118376 C6.58278698,3.96553159 6.63351162,4.09886492 6.63351162,4.26118376 C6.63351162,4.4177055 6.58278698,4.54814029 6.4813377,4.65248811 C6.40017828,4.73596637 6.2995406,4.78605333 6.17942466,4.80274898 L6.08568553,4.80900985 L5.85959857,4.80900985 L2.73751162,4.80900985 L2.73785944,6.28908274 C2.73785944,6.45140158 2.68568553,6.58328563 2.5813377,6.68473491 C2.47698988,6.78618418 2.34365654,6.83690882 2.1813377,6.83690882 C2.02481597,6.83690882 1.89438118,6.78618418 1.79003336,6.68473491 C1.7065551,6.60357549 1.65646814,6.50293781 1.63977249,6.38282187 L1.63351162,6.28908274 L1.63351162,2.22458914 C1.63351162,2.0622703 1.68568553,1.93038624 1.79003336,1.82893697 C1.89438118,1.72748769 2.02481597,1.67676305 2.1813377,1.67676305 Z" id="Path"></path>
            </g>
        </g>
        <g id="plus" transform="translate(11.717819, 11.395462)" fill="#FFFFFF" fill-rule="nonzero">
            <polygon id="Combined-Shape" points="8.66299469 3.33066907e-16 8.66299469 1 4.831 1 4.83149734 8.83149734 3.83149734 8.83149734 3.831 0.999 -1.42306889e-18 1 6.26554089e-17 -2.22044605e-16"></polygon>
        </g>
    </g>
</svg>
