<?xml version="1.0" encoding="UTF-8"?>
<svg width="32px" height="32px" viewBox="0 0 32 32" version="1.1" xmlns="http://www.w3.org/2000/svg" xmlns:xlink="http://www.w3.org/1999/xlink">
    <title>icon-fh</title>
    <g id="icon-fh" stroke="none" stroke-width="1" fill="none" fill-rule="evenodd">
        <g id="Group" transform="translate(10.242676, 2.500488)" fill="#FFFFFF">
            <g id="arrow-left" transform="translate(5.806641, 4.256836) rotate(90.000000) translate(-5.806641, -4.256836) ">
                <path d="M4.43272758,6.83509681 C4.58345222,6.83509681 4.70953918,6.78582144 4.81098845,6.68727072 C4.91243773,6.58872 4.96316236,6.45828521 4.96316236,6.29596637 C4.96316236,6.14524173 4.91098845,6.0177055 4.80664062,5.91335768 L3.94577106,5.06987942 L3.63272758,4.79161855 L4.03272758,4.80900985 L9.25881454,4.80900985 C9.42113338,4.80900985 9.55301744,4.75683594 9.65446671,4.65248811 C9.75591599,4.54814029 9.80664062,4.4177055 9.80664062,4.26118376 C9.80664062,4.09886492 9.75591599,3.96553159 9.65446671,3.86118376 C9.55301744,3.75683594 9.42113338,3.70466202 9.25881454,3.70466202 L4.04142323,3.70466202 L3.64142323,3.72205333 L3.94577106,3.44379246 L4.80664062,2.60900985 C4.91098845,2.50466202 4.96316236,2.37712579 4.96316236,2.22640115 C4.96316236,2.06408231 4.91243773,1.93219826 4.81098845,1.83074898 C4.70953918,1.72929971 4.58345222,1.67857507 4.43272758,1.67857507 C4.28200294,1.67857507 4.14577106,1.73654608 4.02403193,1.85248811 L1.98055367,3.85248811 C1.86461164,3.95683594 1.80664062,4.09161855 1.80664062,4.25683594 C1.80664062,4.42205333 1.86461164,4.55973449 1.98055367,4.66987942 L4.02403193,6.67857507 C4.15156816,6.78292289 4.28780005,6.83509681 4.43272758,6.83509681 Z" id="Path"></path>
            </g>
        </g>
        <g id="Group" transform="translate(10.193359, 20.887207)" fill="#FFFFFF">
            <g id="arrow-left" transform="translate(5.806641, 4.256836) scale(1, -1) rotate(90.000000) translate(-5.806641, -4.256836) ">
                <path d="M4.43272758,6.83509681 C4.58345222,6.83509681 4.70953918,6.78582144 4.81098845,6.68727072 C4.91243773,6.58872 4.96316236,6.45828521 4.96316236,6.29596637 C4.96316236,6.14524173 4.91098845,6.0177055 4.80664062,5.91335768 L3.94577106,5.06987942 L3.63272758,4.79161855 L4.03272758,4.80900985 L9.25881454,4.80900985 C9.42113338,4.80900985 9.55301744,4.75683594 9.65446671,4.65248811 C9.75591599,4.54814029 9.80664062,4.4177055 9.80664062,4.26118376 C9.80664062,4.09886492 9.75591599,3.96553159 9.65446671,3.86118376 C9.55301744,3.75683594 9.42113338,3.70466202 9.25881454,3.70466202 L4.04142323,3.70466202 L3.64142323,3.72205333 L3.94577106,3.44379246 L4.80664062,2.60900985 C4.91098845,2.50466202 4.96316236,2.37712579 4.96316236,2.22640115 C4.96316236,2.06408231 4.91243773,1.93219826 4.81098845,1.83074898 C4.70953918,1.72929971 4.58345222,1.67857507 4.43272758,1.67857507 C4.28200294,1.67857507 4.14577106,1.73654608 4.02403193,1.85248811 L1.98055367,3.85248811 C1.86461164,3.95683594 1.80664062,4.09161855 1.80664062,4.25683594 C1.80664062,4.42205333 1.86461164,4.55973449 1.98055367,4.66987942 L4.02403193,6.67857507 C4.15156816,6.78292289 4.28780005,6.83509681 4.43272758,6.83509681 Z" id="Path"></path>
            </g>
        </g>
    </g>
</svg>