<?xml version="1.0" encoding="UTF-8"?>
<svg width="25" height="25" viewBox="0 0 25 25" fill="none" xmlns="http://www.w3.org/2000/svg">
<path d="M3.67969 19.1484H6.64453V17.2617H3.70312C2.53125 17.2617 1.88672 16.6289 1.88672 15.4102V3.76172C1.88672 2.54297 2.53125 1.91016 3.70312 1.91016H15.4102C16.5703 1.91016 17.2266 2.54297 17.2266 3.76172V6.32812H19.1133V3.65625C19.1133 1.24219 17.8828 0.0234375 15.4453 0.0234375H3.67969C1.21875 0.0234375 0 1.24219 0 3.65625V15.5156C0 17.9297 1.21875 19.1484 3.67969 19.1484ZM9.36328 24.5742H21.1289C23.5664 24.5742 24.7969 23.3555 24.7969 20.9414V9.08203C24.7969 6.66797 23.5664 5.44922 21.1289 5.44922H9.36328C6.90234 5.44922 5.68359 6.65625 5.68359 9.08203V20.9414C5.68359 23.3555 6.90234 24.5742 9.36328 24.5742ZM9.38672 22.6875C8.22656 22.6875 7.57031 22.0547 7.57031 20.8359V9.1875C7.57031 7.96875 8.22656 7.33594 9.38672 7.33594H21.0938C22.2539 7.33594 22.9102 7.96875 22.9102 9.1875V20.8359C22.9102 22.0547 22.2539 22.6875 21.0938 22.6875H9.38672ZM9.82031 15.0117C9.82031 15.5859 10.2305 15.9727 10.8281 15.9727H14.2734V19.4297C14.2734 20.0156 14.6602 20.4258 15.2344 20.4258C15.8203 20.4258 16.2305 20.0273 16.2305 19.4297V15.9727H19.6875C20.2734 15.9727 20.6836 15.5859 20.6836 15.0117C20.6836 14.4258 20.2734 14.0156 19.6875 14.0156H16.2305V10.5703C16.2305 9.97266 15.8203 9.5625 15.2344 9.5625C14.6602 9.5625 14.2734 9.97266 14.2734 10.5703V14.0156H10.8281C10.2188 14.0156 9.82031 14.4258 9.82031 15.0117Z" fill="black"/>
</svg>
