<?xml version="1.0" encoding="UTF-8"?>
<svg width="32px" height="32px" viewBox="0 0 32 32" version="1.1" xmlns="http://www.w3.org/2000/svg" xmlns:xlink="http://www.w3.org/1999/xlink">
    <title>icon-spacing-h</title>
    <g id="icon-spacing-h" stroke="none" stroke-width="1" fill="none" fill-rule="evenodd">
        <g id="Group" transform="translate(16.000000, 16.000000) rotate(90.000000) translate(-16.000000, -16.000000) translate(7.000000, 2.229492)" fill="#FFFFFF">
            <g id="layer" opacity="0.5">
                <g>
                    <rect id="Rectangle" x="-0.193359375" y="1.75683594" width="18.3867188" height="5" rx="1"></rect>
                </g>
            </g>
            <g transform="translate(3.193359, 9.513672)" id="arrow-distance">
                <g transform="translate(5.806641, 4.256836) rotate(90.000000) translate(-5.806641, -4.256836) ">
                    <g id="Group" transform="translate(2.306641, 1.676763)">
                        <path d="M0.547826087,0 C0.710144928,0 0.843478261,0.0507246377 0.947826087,0.152173913 C1.05217391,0.253623188 1.10434783,0.385507246 1.10434783,0.547826087 L1.104,2.02789897 L4.23478261,2.02789897 L4.45217391,2.02789897 C4.61449275,2.02789897 4.74637681,2.08007288 4.84782609,2.18442071 C4.94927536,2.28876854 5,2.42210187 5,2.58442071 C5,2.74094245 4.94927536,2.87137723 4.84782609,2.97572506 C4.76666667,3.05920332 4.66602899,3.10929028 4.54591304,3.12598593 L4.45217391,3.1322468 L4.22608696,3.1322468 L1.104,3.1322468 L1.10434783,4.61231968 C1.10434783,4.77463852 1.05217391,4.90652258 0.947826087,5.00797186 C0.843478261,5.10942113 0.710144928,5.16014577 0.547826087,5.16014577 C0.391304348,5.16014577 0.260869565,5.10942113 0.156521739,5.00797186 C0.0730434783,4.92681244 0.0229565217,4.82617476 0.00626086957,4.70605881 L0,4.61231968 L0,0.547826087 C0,0.385507246 0.052173913,0.253623188 0.156521739,0.152173913 C0.260869565,0.0507246377 0.391304348,0 0.547826087,0 Z" id="Path"></path>
                        <path d="M2.54782609,0 C2.71014493,0 2.84347826,0.0507246377 2.94782609,0.152173913 C3.05217391,0.253623188 3.10434783,0.385507246 3.10434783,0.547826087 L3.104,2.02789897 L6.23478261,2.02789897 L6.45217391,2.02789897 C6.61449275,2.02789897 6.74637681,2.08007288 6.84782609,2.18442071 C6.94927536,2.28876854 7,2.42210187 7,2.58442071 C7,2.74094245 6.94927536,2.87137723 6.84782609,2.97572506 C6.76666667,3.05920332 6.66602899,3.10929028 6.54591304,3.12598593 L6.45217391,3.1322468 L6.22608696,3.1322468 L3.104,3.1322468 L3.10434783,4.61231968 C3.10434783,4.77463852 3.05217391,4.90652258 2.94782609,5.00797186 C2.84347826,5.10942113 2.71014493,5.16014577 2.54782609,5.16014577 C2.39130435,5.16014577 2.26086957,5.10942113 2.15652174,5.00797186 C2.07304348,4.92681244 2.02295652,4.82617476 2.00626087,4.70605881 L2,4.61231968 L2,0.547826087 C2,0.385507246 2.05217391,0.253623188 2.15652174,0.152173913 C2.26086957,0.0507246377 2.39130435,0 2.54782609,0 Z" id="Path" transform="translate(4.500000, 2.580073) scale(-1, 1) translate(-4.500000, -2.580073) "></path>
                    </g>
                </g>
            </g>
            <g transform="translate(0.000000, 19.027344)" id="layer" opacity="0.5">
                <g>
                    <rect id="Rectangle" x="-0.193359375" y="1.75683594" width="18.3867188" height="5" rx="1"></rect>
                </g>
            </g>
        </g>
    </g>
</svg>