<?xml version="1.0" encoding="UTF-8"?>
<svg width="32" height="32" viewBox="0 0 32 32" fill="none" xmlns="http://www.w3.org/2000/svg">
<path d="M11.9291 19.127H13.4835V18.1279H11.9414C11.327 18.1279 10.9891 17.7928 10.9891 17.1475V10.9795C10.9891 10.3341 11.327 9.99905 11.9414 9.99905H18.0789C18.6871 9.99905 19.0312 10.3341 19.0312 10.9795V12.3384H20.0203V10.9236C20.0203 9.64535 19.3752 9 18.0973 9H11.9291C10.6389 9 10 9.64535 10 10.9236V17.2033C10 18.4816 10.6389 19.127 11.9291 19.127ZM14.9088 22H21.077C22.3549 22 23 21.3547 23 20.0764V13.7967C23 12.5184 22.3549 11.873 21.077 11.873H14.9088C13.6186 11.873 12.9797 12.5122 12.9797 13.7967V20.0764C12.9797 21.3547 13.6186 22 14.9088 22ZM14.9211 21.001C14.3128 21.001 13.9688 20.6659 13.9688 20.0205V13.8525C13.9688 13.2072 14.3128 12.8721 14.9211 12.8721H21.0586C21.6668 12.8721 22.0109 13.2072 22.0109 13.8525V20.0205C22.0109 20.6659 21.6668 21.001 21.0586 21.001H14.9211ZM15.1484 16.9365C15.1484 17.2406 15.3634 17.4454 15.6767 17.4454H17.483V19.2759C17.483 19.5862 17.6857 19.8034 17.9868 19.8034C18.2939 19.8034 18.509 19.5923 18.509 19.2759V17.4454H20.3214C20.6285 17.4454 20.8436 17.2406 20.8436 16.9365C20.8436 16.6263 20.6285 16.4091 20.3214 16.4091H18.509V14.5847C18.509 14.2683 18.2939 14.0511 17.9868 14.0511C17.6857 14.0511 17.483 14.2683 17.483 14.5847V16.4091H15.6767C15.3573 16.4091 15.1484 16.6263 15.1484 16.9365Z" fill="white"/>
</svg>
