<?xml version="1.0" encoding="UTF-8"?>
<svg width="32px" height="32px" viewBox="0 0 32 32" version="1.1" xmlns="http://www.w3.org/2000/svg" xmlns:xlink="http://www.w3.org/1999/xlink">
    <title>icon-rtl</title>
    <g id="icon-rtl" stroke="none" stroke-width="1" fill="none" fill-rule="evenodd">
        <g id="Group-3" transform="translate(2.693359, 4.986328)" fill="#FFFFFF">
            <g id="Group-2" transform="translate(1.000000, 0.000000)">
                <g id="Path" transform="translate(14.000000, 0.000000)">
                    <path d="M7.18055367,6.83509681 C7.02982903,6.83509681 6.90374207,6.78582144 6.8022928,6.68727072 C6.70084352,6.58872 6.65011889,6.45828521 6.65011889,6.29596637 C6.65011889,6.14524173 6.7022928,6.0177055 6.80664062,5.91335768 L7.66751019,5.06987942 L7.98055367,4.79161855 L7.58055367,4.80900985 L2.35446671,4.80900985 C2.19214787,4.80900985 2.06026381,4.75683594 1.95881454,4.65248811 C1.85736526,4.54814029 1.80664062,4.4177055 1.80664062,4.26118376 C1.80664062,4.09886492 1.85736526,3.96553159 1.95881454,3.86118376 C2.06026381,3.75683594 2.19214787,3.70466202 2.35446671,3.70466202 L7.57185802,3.70466202 L7.97185802,3.72205333 L7.66751019,3.44379246 L6.80664062,2.60900985 C6.7022928,2.50466202 6.65011889,2.37712579 6.65011889,2.22640115 C6.65011889,2.06408231 6.70084352,1.93219826 6.8022928,1.83074898 C6.90374207,1.72929971 7.02982903,1.67857507 7.18055367,1.67857507 C7.33127831,1.67857507 7.46751019,1.73654608 7.58924932,1.85248811 L9.63272758,3.85248811 C9.74866961,3.95683594 9.80664062,4.09161855 9.80664062,4.25683594 C9.80664062,4.42205333 9.74866961,4.55973449 9.63272758,4.66987942 L7.58924932,6.67857507 C7.46171309,6.78292289 7.3254812,6.83509681 7.18055367,6.83509681 Z"></path>
                </g>
                <g id="Path">
                    <path d="M2.1813377,1.67676305 C2.34365654,1.67676305 2.47698988,1.72748769 2.5813377,1.82893697 C2.68568553,1.93038624 2.73785944,2.0622703 2.73785944,2.22458914 L2.73751162,3.70466202 L5.86829423,3.70466202 L6.08568553,3.70466202 C6.24800437,3.70466202 6.37988843,3.75683594 6.4813377,3.86118376 C6.58278698,3.96553159 6.63351162,4.09886492 6.63351162,4.26118376 C6.63351162,4.4177055 6.58278698,4.54814029 6.4813377,4.65248811 C6.40017828,4.73596637 6.2995406,4.78605333 6.17942466,4.80274898 L6.08568553,4.80900985 L5.85959857,4.80900985 L2.73751162,4.80900985 L2.73785944,6.28908274 C2.73785944,6.45140158 2.68568553,6.58328563 2.5813377,6.68473491 C2.47698988,6.78618418 2.34365654,6.83690882 2.1813377,6.83690882 C2.02481597,6.83690882 1.89438118,6.78618418 1.79003336,6.68473491 C1.7065551,6.60357549 1.65646814,6.50293781 1.63977249,6.38282187 L1.63351162,6.28908274 L1.63351162,2.22458914 C1.63351162,2.0622703 1.68568553,1.93038624 1.79003336,1.82893697 C1.89438118,1.72748769 2.02481597,1.67676305 2.1813377,1.67676305 Z"></path>
                </g>
            </g>
            <g id="Group-2" transform="translate(12.806641, 17.770508) scale(-1, 1) translate(-12.806641, -17.770508) translate(0.000000, 13.513672)">
                <g id="Path" transform="translate(14.000000, 0.000000)">
                    <path d="M7.18055367,6.83509681 C7.02982903,6.83509681 6.90374207,6.78582144 6.8022928,6.68727072 C6.70084352,6.58872 6.65011889,6.45828521 6.65011889,6.29596637 C6.65011889,6.14524173 6.7022928,6.0177055 6.80664062,5.91335768 L7.66751019,5.06987942 L7.98055367,4.79161855 L7.58055367,4.80900985 L2.35446671,4.80900985 C2.19214787,4.80900985 2.06026381,4.75683594 1.95881454,4.65248811 C1.85736526,4.54814029 1.80664062,4.4177055 1.80664062,4.26118376 C1.80664062,4.09886492 1.85736526,3.96553159 1.95881454,3.86118376 C2.06026381,3.75683594 2.19214787,3.70466202 2.35446671,3.70466202 L7.57185802,3.70466202 L7.97185802,3.72205333 L7.66751019,3.44379246 L6.80664062,2.60900985 C6.7022928,2.50466202 6.65011889,2.37712579 6.65011889,2.22640115 C6.65011889,2.06408231 6.70084352,1.93219826 6.8022928,1.83074898 C6.90374207,1.72929971 7.02982903,1.67857507 7.18055367,1.67857507 C7.33127831,1.67857507 7.46751019,1.73654608 7.58924932,1.85248811 L9.63272758,3.85248811 C9.74866961,3.95683594 9.80664062,4.09161855 9.80664062,4.25683594 C9.80664062,4.42205333 9.74866961,4.55973449 9.63272758,4.66987942 L7.58924932,6.67857507 C7.46171309,6.78292289 7.3254812,6.83509681 7.18055367,6.83509681 Z"></path>
                </g>
                <g id="Path">
                    <path d="M2.1813377,1.67676305 C2.34365654,1.67676305 2.47698988,1.72748769 2.5813377,1.82893697 C2.68568553,1.93038624 2.73785944,2.0622703 2.73785944,2.22458914 L2.73751162,3.70466202 L5.86829423,3.70466202 L6.08568553,3.70466202 C6.24800437,3.70466202 6.37988843,3.75683594 6.4813377,3.86118376 C6.58278698,3.96553159 6.63351162,4.09886492 6.63351162,4.26118376 C6.63351162,4.4177055 6.58278698,4.54814029 6.4813377,4.65248811 C6.40017828,4.73596637 6.2995406,4.78605333 6.17942466,4.80274898 L6.08568553,4.80900985 L5.85959857,4.80900985 L2.73751162,4.80900985 L2.73785944,6.28908274 C2.73785944,6.45140158 2.68568553,6.58328563 2.5813377,6.68473491 C2.47698988,6.78618418 2.34365654,6.83690882 2.1813377,6.83690882 C2.02481597,6.83690882 1.89438118,6.78618418 1.79003336,6.68473491 C1.7065551,6.60357549 1.65646814,6.50293781 1.63977249,6.38282187 L1.63351162,6.28908274 L1.63351162,2.22458914 C1.63351162,2.0622703 1.68568553,1.93038624 1.79003336,1.82893697 C1.89438118,1.72748769 2.02481597,1.67676305 2.1813377,1.67676305 Z"></path>
                </g>
            </g>
        </g>
    </g>
</svg>