<?xml version="1.0" encoding="UTF-8"?>
<svg width="32px" height="32px" viewBox="0 0 32 32" version="1.1" xmlns="http://www.w3.org/2000/svg" xmlns:xlink="http://www.w3.org/1999/xlink">
    <title>icon-dx</title>
    <g id="icon-dx" stroke="none" stroke-width="1" fill="none" fill-rule="evenodd">
        <path d="M10.7498047,16.0746328 L10.7664714,16.1494141 C10.7738498,16.1741536 10.7830729,16.1985677 10.7941406,16.2226562 C10.8273437,16.2949219 10.8732422,16.3603516 10.9318359,16.4189453 L14.5998047,20.0751953 C14.7208984,20.1962891 14.8556641,20.2568359 15.0041016,20.2568359 C15.1603516,20.2568359 15.2912109,20.2050781 15.3966797,20.1015625 C15.5021484,19.9980469 15.5548828,19.8681641 15.5548828,19.7119141 C15.5548828,19.6337891 15.5402344,19.5605469 15.5109375,19.4921875 C15.4816406,19.4238281 15.4416016,19.3642578 15.3908203,19.3134766 L14.1486328,18.0537109 L12.4448047,16.5156328 L13.6330078,16.5595703 L20.6935547,16.5595703 C20.8576172,16.5595703 20.9914063,16.5068359 21.0949219,16.4013672 C21.1984375,16.2958984 21.2501953,16.1611328 21.2501953,15.9970703 C21.2501953,15.8291016 21.1984375,15.6933594 21.0949219,15.5898438 C20.9914063,15.4863281 20.8576172,15.4345703 20.6935547,15.4345703 L13.6330078,15.4345703 L12.4398047,15.4826328 L14.1486328,13.9404297 L15.3908203,12.6748047 C15.4416016,12.6240234 15.4816406,12.5654297 15.5109375,12.4990234 C15.5402344,12.4326172 15.5548828,12.3603516 15.5548828,12.2822266 C15.5548828,12.1259766 15.5021484,11.9970703 15.3966797,11.8955078 C15.2912109,11.7939453 15.1603516,11.7431641 15.0041016,11.7431641 C14.8556641,11.7431641 14.7208984,11.7998047 14.5998047,11.9130859 L10.9318359,15.5810547 C10.8732422,15.6396484 10.8273437,15.7041016 10.7941406,15.7744141 C10.7720052,15.8212891 10.7572483,15.8699002 10.7498047,15.9202474 L10.7498047,16.0746328 Z" id="􀅅" fill="#FFFFFF" fill-rule="nonzero" transform="translate(16.000000, 16.000000) scale(-1, -1) translate(-16.000000, -16.000000) "></path>
    </g>
</svg>